<svg width="316" height="316" viewBox="0 0 316 316" fill="none" xmlns="http://www.w3.org/2000/svg">
<path d="M51.9939 252.86C52.1732 252.852 52.3521 252.883 52.5178 252.952C52.6836 253.021 52.8321 253.125 52.9529 253.258C53.165 253.511 53.2776 253.833 53.2696 254.163C53.2793 254.493 53.1665 254.815 52.9529 255.067C52.831 255.208 52.679 255.319 52.5083 255.392C52.3376 255.466 52.1525 255.5 51.9668 255.493H41.9334C41.7429 255.502 41.553 255.464 41.3809 255.382C41.2087 255.3 41.0597 255.176 40.9473 255.022C40.738 254.789 40.6249 254.485 40.6306 254.172V218.671C40.6232 218.489 40.6576 218.308 40.7314 218.141C40.8051 217.975 40.9161 217.828 41.0559 217.712C41.3089 217.5 41.6305 217.387 41.9606 217.395C42.2904 217.389 42.6115 217.501 42.8653 217.712C42.9968 217.839 43.1002 217.993 43.1687 218.163C43.2373 218.332 43.2695 218.515 43.2634 218.698V252.86H51.9939Z" fill="#1D1D1D"/>
<path d="M59.7204 254.479C59.6901 254.655 59.6186 254.822 59.5117 254.965C59.4048 255.108 59.2654 255.223 59.1052 255.302C58.8248 255.443 58.5015 255.472 58.2004 255.384C57.8629 255.312 57.5671 255.111 57.3771 254.823C57.2698 254.676 57.199 254.506 57.1707 254.327C57.1424 254.147 57.1573 253.964 57.2143 253.791C57.8838 250.818 58.5141 247.446 59.1052 243.677C59.4912 241.089 59.9586 237.576 60.5075 233.137L61.1408 227.853C61.3941 225.872 61.6203 224.117 61.8374 222.597L61.8917 222.018L61.9641 221.43C62.0183 220.917 62.0726 220.501 62.1269 220.181C62.2469 219.369 62.5569 218.598 63.0316 217.928C63.1082 217.779 63.2189 217.65 63.3547 217.552C63.4905 217.453 63.6476 217.388 63.8133 217.361C63.9789 217.335 64.1485 217.348 64.3082 217.399C64.4679 217.451 64.6133 217.539 64.7325 217.657C65.2538 218.089 65.6244 218.675 65.791 219.331C66.4118 221.859 66.8891 224.42 67.2205 227.003C67.3471 227.98 67.51 229.283 67.7 230.902L67.9443 232.838L68.1795 234.756C68.8852 240.329 69.6451 246.816 70.4594 254.217C70.4872 254.38 70.4754 254.547 70.425 254.704C70.3746 254.862 70.2871 255.005 70.1699 255.121C70.0466 255.23 69.9033 255.312 69.7481 255.365C69.5929 255.418 69.4288 255.44 69.2651 255.429C69.0844 255.452 68.9008 255.436 68.7264 255.384C68.552 255.331 68.3908 255.241 68.2533 255.122C68.1157 255.002 68.005 254.855 67.9284 254.69C67.8518 254.524 67.8109 254.345 67.8085 254.162V253.864L67.1752 248.246H60.996C60.604 250.489 60.1788 252.567 59.7204 254.479ZM63.3392 231.409C62.5974 237.663 61.9611 242.398 61.4303 245.613H66.7862C66.2977 241.427 65.8393 237.666 65.411 234.331C64.9104 230.507 64.4762 227.428 64.1082 225.094V225.012L63.7102 228.242L63.3392 231.409Z" fill="#1D1D1D"/>
<path d="M85.496 220.045C85.3138 220.055 85.1319 220.022 84.9651 219.948C84.7983 219.874 84.6516 219.762 84.537 219.62C84.3234 219.368 84.2106 219.046 84.2203 218.715C84.2123 218.385 84.3249 218.064 84.537 217.81C84.656 217.674 84.8036 217.565 84.9693 217.491C85.135 217.418 85.3147 217.382 85.496 217.385H98.2887C98.4705 217.378 98.6515 217.412 98.8178 217.486C98.9841 217.56 99.1312 217.671 99.2477 217.81C99.4598 218.064 99.5724 218.385 99.5643 218.715C99.5741 219.046 99.4613 219.368 99.2477 219.62C99.1266 219.761 98.9748 219.873 98.8039 219.947C98.633 220.02 98.4475 220.054 98.2616 220.045H93.2223V254.216C93.2297 254.398 93.1953 254.579 93.1215 254.746C93.0478 254.912 92.9368 255.059 92.797 255.175C92.5419 255.383 92.221 255.492 91.8923 255.483C91.5631 255.496 91.2407 255.386 90.9876 255.175C90.8478 255.058 90.7361 254.912 90.661 254.746C90.5858 254.579 90.549 254.399 90.5533 254.216V220.045H85.496Z" fill="#1D1D1D"/>
<path d="M106.947 255.248C104.576 254.561 102.806 252.606 101.636 249.386C100.466 246.165 99.887 241.997 99.8991 236.882C99.8991 231.532 100.439 227.292 101.519 224.162C102.942 220.012 105.119 217.748 108.051 217.368C108.288 217.349 108.527 217.349 108.765 217.368H109.037H109.218C110.275 217.522 111.263 217.984 112.058 218.698C113.427 220.004 114.456 221.625 115.053 223.42C115.691 225.206 116.128 227.057 116.356 228.939C116.915 233.046 117.039 237.201 116.727 241.334C116.449 245.556 115.78 248.743 114.718 250.897C113.997 252.367 112.894 253.616 111.525 254.515C110.863 254.968 110.109 255.268 109.318 255.395C108.526 255.522 107.717 255.472 106.947 255.248ZM103.328 227.636C102.664 231.215 102.406 234.857 102.559 238.493C102.692 242.89 103.222 246.276 104.151 248.653C104.572 249.84 105.252 250.919 106.142 251.81C106.568 252.268 107.123 252.586 107.734 252.72C108.345 252.854 108.983 252.799 109.561 252.561C110.725 252.084 111.671 251.195 112.221 250.064C112.785 248.939 113.196 247.743 113.443 246.509C113.952 243.857 114.228 241.166 114.266 238.466C114.406 234.829 114.145 231.188 113.488 227.609C113.388 227.166 113.307 226.813 113.253 226.523C113.144 226.098 113.036 225.7 112.936 225.329C112.705 224.473 112.402 223.638 112.031 222.832C111.115 220.944 109.908 219.982 108.412 219.946C106.929 220.046 105.698 221.023 104.794 222.859C104.422 223.655 104.119 224.482 103.889 225.329C103.726 225.999 103.518 226.75 103.364 227.636H103.328Z" fill="#1D1D1D"/>
<path d="M131.474 254.823C130.691 255.299 129.783 255.526 128.868 255.474C127.954 255.422 127.077 255.094 126.353 254.534C124.882 253.381 123.804 251.8 123.268 250.01C122.388 247.375 121.847 244.639 121.657 241.868C121.477 239.883 121.377 237.097 121.359 233.508C121.359 231.789 121.413 229.31 121.522 226.071L121.621 222.38C121.621 221.005 121.676 219.765 121.676 218.671C121.668 218.489 121.703 218.308 121.776 218.141C121.85 217.975 121.961 217.828 122.101 217.712C122.357 217.506 122.677 217.394 123.005 217.394C123.334 217.394 123.653 217.506 123.91 217.712C124.049 217.834 124.16 217.986 124.233 218.157C124.307 218.328 124.342 218.512 124.335 218.698C124.335 219.829 124.335 221.122 124.254 222.57L124.145 226.469C124.037 229.799 124.001 232.395 124.019 234.25C124.016 237.23 124.173 240.207 124.489 243.17C124.67 244.654 124.86 245.884 125.05 246.789C125.266 247.973 125.631 249.125 126.136 250.218C126.432 250.883 126.836 251.494 127.33 252.027C127.57 252.3 127.869 252.514 128.205 252.652C128.541 252.79 128.904 252.849 129.266 252.824C129.626 252.778 129.973 252.658 130.285 252.471C130.596 252.284 130.866 252.034 131.076 251.738C131.529 251.158 131.889 250.511 132.143 249.82C133.08 247.22 133.658 244.505 133.862 241.75C133.971 240.519 134.043 239.126 134.079 237.588V235.516V233.472C134.079 231.771 134.079 229.301 133.925 226.062L133.817 222.371C133.817 220.996 133.763 219.765 133.763 218.689C133.754 218.509 133.786 218.329 133.857 218.163C133.927 217.997 134.034 217.849 134.17 217.73C134.422 217.516 134.744 217.403 135.074 217.413C135.404 217.409 135.724 217.521 135.979 217.73C136.112 217.856 136.216 218.01 136.284 218.18C136.353 218.35 136.385 218.533 136.377 218.716C136.377 220.272 136.422 222.28 136.513 224.741L136.585 227.736L136.667 230.767C136.783 234.788 136.65 238.813 136.269 242.817L136.187 243.559L136.115 244.328C136.042 244.953 135.961 245.504 135.871 246.002C135.704 247.17 135.456 248.325 135.129 249.458C134.357 252.154 133.138 253.942 131.474 254.823Z" fill="#1D1D1D"/>
<path d="M141.082 219.548C140.97 219.351 140.907 219.13 140.897 218.903C140.888 218.677 140.933 218.451 141.028 218.245C141.117 218.005 141.278 217.798 141.488 217.651C141.698 217.504 141.947 217.424 142.204 217.422C146.305 217.151 149.233 218.203 150.988 220.58C152.656 223.024 153.502 225.936 153.404 228.894C153.404 232.513 152.635 235.396 151.097 237.543C150.356 238.53 149.435 239.368 148.383 240.013C148.984 242.347 149.773 244.628 150.744 246.834L151.468 248.481L152.21 250.128C152.861 251.575 153.35 252.688 153.666 253.439C153.742 253.611 153.782 253.798 153.782 253.986C153.782 254.175 153.742 254.361 153.666 254.534C153.528 254.843 153.298 255.103 153.006 255.275C152.737 255.445 152.416 255.512 152.101 255.465C151.932 255.415 151.776 255.326 151.648 255.205C151.519 255.084 151.42 254.935 151.359 254.769C151.025 253.973 150.527 252.851 149.876 251.394L149.098 249.73L148.383 248.056C147.385 245.812 146.56 243.495 145.913 241.126C145.206 241.354 144.479 241.514 143.742 241.605V254.217C143.749 254.399 143.715 254.58 143.641 254.746C143.567 254.912 143.456 255.059 143.316 255.176C143.057 255.375 142.739 255.484 142.412 255.484C142.085 255.484 141.766 255.375 141.507 255.176C141.37 255.057 141.261 254.909 141.188 254.744C141.115 254.578 141.078 254.398 141.082 254.217V219.548ZM143.742 238.945C144.899 238.828 146.01 238.428 146.977 237.781C147.944 237.135 148.737 236.261 149.288 235.236C150.438 233.157 150.945 230.782 150.744 228.414C150.745 226.221 150.118 224.073 148.935 222.226C147.84 220.761 146.103 220.019 143.733 220.019L143.742 238.945Z" fill="#1D1D1D"/>
<path d="M168.024 219.575C167.86 219.389 167.752 219.16 167.715 218.914C167.678 218.668 167.713 218.417 167.816 218.191C167.884 217.927 168.038 217.694 168.255 217.53C168.472 217.366 168.738 217.28 169.01 217.286C171.011 217.173 173.001 217.638 174.744 218.626C176.486 219.615 177.907 221.084 178.836 222.859C180.774 226.415 181.771 230.408 181.731 234.458C181.87 239.79 181.091 244.244 179.397 247.82C177.243 252.29 173.808 254.829 169.092 255.438C168.863 255.494 168.621 255.465 168.412 255.357C168.202 255.249 168.039 255.069 167.952 254.85C167.854 254.641 167.81 254.411 167.823 254.181C167.835 253.95 167.905 253.726 168.024 253.529V219.575ZM170.684 252.516C173.959 251.575 176.306 249.141 177.723 245.215C178.857 241.758 179.323 238.116 179.098 234.485C179.079 231.381 178.464 228.31 177.289 225.438C175.829 222.271 173.643 220.462 170.729 220.009L170.684 252.516Z" fill="#1D1D1D"/>
<path d="M186.083 218.933C186.045 218.751 186.044 218.564 186.08 218.383C186.116 218.201 186.187 218.028 186.291 217.874C186.409 217.702 186.569 217.563 186.755 217.469C186.942 217.376 187.15 217.332 187.358 217.34H196.939C197.121 217.333 197.302 217.367 197.468 217.441C197.635 217.515 197.782 217.626 197.898 217.766C198.109 218.019 198.218 218.341 198.206 218.67C198.215 218.999 198.106 219.32 197.898 219.575C197.779 219.712 197.632 219.821 197.466 219.894C197.3 219.968 197.12 220.004 196.939 220H188.706V235.48H196.939C197.121 235.473 197.302 235.507 197.468 235.581C197.635 235.655 197.782 235.766 197.898 235.905C198.107 236.16 198.216 236.481 198.206 236.81C198.219 237.139 198.109 237.462 197.898 237.715C197.781 237.853 197.634 237.964 197.467 238.037C197.301 238.111 197.121 238.146 196.939 238.14H188.706V252.878H196.939C197.118 252.87 197.297 252.901 197.463 252.97C197.629 253.039 197.777 253.143 197.898 253.276C198.107 253.53 198.216 253.852 198.206 254.181C198.219 254.51 198.109 254.832 197.898 255.085C197.781 255.224 197.634 255.334 197.467 255.408C197.301 255.482 197.121 255.517 196.939 255.51H187.385C187.197 255.518 187.009 255.481 186.838 255.403C186.667 255.324 186.516 255.206 186.399 255.058C186.178 254.81 186.065 254.485 186.083 254.153V218.933Z" fill="#1D1D1D"/>
<path d="M212.79 219.439C212.674 219.243 212.609 219.022 212.6 218.795C212.59 218.568 212.637 218.342 212.735 218.137C212.822 217.897 212.981 217.689 213.19 217.542C213.398 217.394 213.647 217.315 213.903 217.313C218.01 217.054 220.938 218.106 222.687 220.471C224.357 222.904 225.204 225.809 225.103 228.758C225.103 232.377 224.334 235.254 222.796 237.389C221.921 238.536 220.807 239.478 219.53 240.148C218.265 240.846 216.876 241.288 215.441 241.451V254.217C215.448 254.399 215.414 254.58 215.34 254.746C215.266 254.912 215.155 255.059 215.015 255.176C214.761 255.385 214.44 255.494 214.111 255.483C213.781 255.496 213.459 255.387 213.206 255.176C213.067 255.058 212.957 254.911 212.883 254.745C212.81 254.579 212.775 254.398 212.781 254.217L212.79 219.439ZM215.441 238.819C216.597 238.695 217.706 238.292 218.672 237.644C219.639 236.996 220.433 236.123 220.986 235.1C222.139 233.031 222.649 230.666 222.452 228.306C222.449 226.113 221.821 223.966 220.643 222.117C219.545 220.652 217.811 219.919 215.441 219.919V238.819Z" fill="#1D1D1D"/>
<path d="M224.75 253.837C224.707 254.011 224.625 254.173 224.511 254.311C224.397 254.448 224.252 254.559 224.089 254.633C223.79 254.77 223.45 254.786 223.139 254.678C222.82 254.593 222.543 254.393 222.361 254.117C222.265 253.964 222.204 253.791 222.182 253.611C222.16 253.431 222.178 253.249 222.235 253.077L232.521 218.969C232.571 218.794 232.658 218.632 232.776 218.494C232.895 218.357 233.043 218.247 233.209 218.173C233.502 218.072 233.82 218.072 234.114 218.173C234.433 218.262 234.71 218.465 234.892 218.743C234.984 218.896 235.042 219.068 235.061 219.246C235.08 219.424 235.059 219.605 235 219.774L224.75 253.837Z" fill="#1D1D1D"/>
<path d="M239.379 212.13C239.28 212.13 239.199 211.994 239.153 211.722C239.124 211.422 239.124 211.119 239.153 210.818C239.155 210.513 239.192 210.21 239.262 209.913C239.334 209.633 239.416 209.488 239.515 209.497L248.191 209.823C248.282 209.823 248.354 209.967 248.408 210.257C248.482 210.86 248.458 211.471 248.336 212.066C248.264 212.338 248.182 212.464 248.083 212.464L239.379 212.13Z" fill="#1D1D1D"/>
<path d="M239.95 220.019C239.77 220.027 239.591 219.996 239.426 219.927C239.26 219.858 239.111 219.753 238.991 219.621C238.777 219.369 238.664 219.046 238.674 218.716C238.67 218.387 238.782 218.066 238.991 217.811C239.113 217.681 239.262 217.577 239.427 217.509C239.592 217.44 239.771 217.407 239.95 217.413H252.163C252.477 217.407 252.78 217.521 253.014 217.73C253.237 217.866 253.403 218.079 253.48 218.329C253.557 218.579 253.539 218.849 253.43 219.087C248.605 232.766 244.775 243.961 241.94 252.67C245.417 252.306 248.922 252.306 252.399 252.67C252.759 252.74 253.081 252.939 253.303 253.231C253.511 253.508 253.622 253.844 253.62 254.19C253.627 254.344 253.602 254.499 253.548 254.643C253.494 254.788 253.41 254.92 253.303 255.031C253.182 255.158 253.03 255.252 252.862 255.304C252.694 255.356 252.516 255.365 252.344 255.33C248.221 254.909 244.063 254.952 239.95 255.457C239.728 255.502 239.497 255.472 239.294 255.372C239.091 255.272 238.927 255.108 238.828 254.905C238.734 254.71 238.685 254.497 238.685 254.28C238.685 254.064 238.734 253.851 238.828 253.656C241.65 244.844 245.456 233.623 250.245 219.992L239.95 220.019Z" fill="#1D1D1D"/>
<path d="M257.32 218.933C257.284 218.751 257.285 218.564 257.323 218.382C257.36 218.2 257.433 218.028 257.537 217.874C257.656 217.703 257.816 217.564 258.002 217.47C258.189 217.377 258.396 217.332 258.605 217.341H268.177C268.357 217.332 268.537 217.367 268.702 217.44C268.867 217.514 269.012 217.626 269.127 217.766C269.347 218.015 269.463 218.338 269.452 218.67C269.459 219.002 269.343 219.324 269.127 219.575C269.01 219.713 268.864 219.822 268.7 219.896C268.536 219.969 268.357 220.005 268.177 220H259.944V235.48H268.177C268.357 235.472 268.537 235.506 268.702 235.58C268.867 235.654 269.012 235.765 269.127 235.905C269.345 236.155 269.461 236.478 269.452 236.81C269.463 237.142 269.347 237.466 269.127 237.715C269.011 237.854 268.866 237.964 268.701 238.038C268.536 238.112 268.357 238.147 268.177 238.14H259.944V252.878H268.177C268.355 252.869 268.532 252.9 268.697 252.969C268.861 253.038 269.008 253.143 269.127 253.276C269.345 253.526 269.461 253.849 269.452 254.181C269.463 254.513 269.347 254.836 269.127 255.085C269.011 255.224 268.866 255.335 268.701 255.409C268.536 255.482 268.357 255.517 268.177 255.511H258.605C258.418 255.518 258.231 255.481 258.061 255.403C257.891 255.324 257.743 255.206 257.628 255.058C257.408 254.809 257.292 254.485 257.302 254.153L257.32 218.933Z" fill="#1D1D1D"/>
<path d="M183.296 148.98L182.527 148.952L182.536 148.907L183.296 148.962H183.16L183.296 148.98Z" fill="#1D1D1D"/>
<path d="M182.057 153.957V153.947L182.274 153.911L182.057 153.893H182.437L182.817 153.839L182.455 153.893L182.817 153.947L182.31 153.92L182.057 153.957Z" fill="#1D1D1D"/>
<path d="M184.11 136.593L184.123 136.567H184.11V136.593Z" fill="#1D1D1D"/>
<path d="M184.11 136.975H183.685L183.73 136.549V136.531L184.11 136.558V136.206V136.558L184.499 136.567V136.957L184.11 136.975Z" fill="#1D1D1D"/>
<path d="M155.992 193.989C155.415 193.921 154.89 193.628 154.529 193.174C154.168 192.72 154.001 192.141 154.064 191.565L155.295 180.554C155.497 179.257 156.192 178.087 157.235 177.29C158.278 176.492 159.589 176.129 160.894 176.275C162.199 176.42 163.397 177.065 164.239 178.073C165.08 179.081 165.499 180.375 165.41 181.685L164.342 191.23C164.278 191.806 163.989 192.333 163.537 192.695C163.084 193.057 162.507 193.225 161.931 193.161C161.355 193.098 160.828 192.808 160.466 192.356C160.104 191.904 159.936 191.326 159.999 190.75L161.094 181.197C161.094 180.916 160.832 180.654 160.434 180.609C160.036 180.563 159.701 180.744 159.665 181.034L158.443 192.053C158.411 192.342 158.321 192.621 158.18 192.875C158.039 193.129 157.849 193.352 157.621 193.533C157.393 193.713 157.132 193.846 156.852 193.924C156.572 194.002 156.28 194.025 155.992 193.989ZM148.6 193.157C148.025 193.093 147.498 192.804 147.135 192.353C146.772 191.902 146.603 191.326 146.664 190.75L147.903 179.731C147.903 179.46 147.632 179.197 147.243 179.152C146.854 179.107 146.501 179.288 146.474 179.568L145.334 189.755C145.302 190.04 145.215 190.317 145.077 190.568C144.939 190.819 144.752 191.041 144.528 191.22C144.305 191.4 144.048 191.533 143.772 191.613C143.497 191.693 143.208 191.718 142.923 191.687C142.638 191.655 142.362 191.568 142.11 191.43C141.859 191.292 141.637 191.105 141.458 190.881C141.278 190.657 141.145 190.4 141.065 190.125C140.985 189.849 140.96 189.561 140.991 189.276L142.131 179.089C142.299 177.765 142.981 176.56 144.03 175.734C145.078 174.908 146.41 174.528 147.736 174.675C149.063 174.823 150.278 175.486 151.12 176.521C151.962 177.557 152.363 178.882 152.237 180.21L151.016 191.23C150.952 191.801 150.665 192.324 150.218 192.685C149.77 193.046 149.199 193.215 148.627 193.157H148.6ZM169.463 192.84C169.177 192.811 168.9 192.725 168.647 192.588C168.395 192.451 168.172 192.265 167.992 192.041C167.812 191.818 167.678 191.56 167.598 191.284C167.518 191.008 167.494 190.719 167.527 190.434L168.431 182.029C168.58 180.679 169.259 179.444 170.319 178.595C171.378 177.746 172.732 177.352 174.081 177.501C175.431 177.65 176.666 178.328 177.516 179.388C178.365 180.448 178.758 181.801 178.609 183.151L178.248 188.896C178.197 189.47 177.927 190.003 177.494 190.383C177.061 190.764 176.498 190.964 175.922 190.94C175.636 190.922 175.356 190.847 175.098 190.72C174.841 190.593 174.611 190.417 174.422 190.201C174.232 189.985 174.088 189.733 173.996 189.461C173.904 189.189 173.867 188.902 173.887 188.615L174.258 182.762C174.258 182.382 173.905 182.119 173.615 182.083C173.402 182.061 173.187 182.115 173.009 182.237L171.915 190.913C171.883 191.2 171.795 191.477 171.656 191.729C171.517 191.981 171.329 192.203 171.104 192.382C170.878 192.561 170.62 192.694 170.343 192.773C170.066 192.851 169.776 192.874 169.49 192.84H169.463ZM135.617 189.981C135.332 189.951 135.056 189.865 134.805 189.727C134.553 189.589 134.332 189.403 134.152 189.18C133.973 188.956 133.84 188.699 133.761 188.423C133.682 188.148 133.658 187.86 133.69 187.575L134.731 178.256C134.731 177.967 134.36 177.713 134.079 177.677C133.799 177.641 133.374 177.768 133.301 178.157L132.478 184.264C132.393 184.837 132.086 185.353 131.625 185.703C131.163 186.053 130.583 186.209 130.008 186.136C129.724 186.097 129.45 186.003 129.203 185.858C128.955 185.713 128.739 185.521 128.566 185.293C128.393 185.064 128.266 184.803 128.194 184.526C128.122 184.249 128.105 183.96 128.144 183.676L128.968 177.569C129.184 176.281 129.888 175.125 130.932 174.341C131.976 173.557 133.282 173.204 134.579 173.355C135.877 173.506 137.066 174.149 137.903 175.152C138.739 176.156 139.158 177.442 139.073 178.745L138.033 188.054C137.971 188.626 137.685 189.151 137.237 189.512C136.79 189.873 136.217 190.042 135.644 189.981H135.617ZM182.292 189.077C181.717 189.013 181.191 188.724 180.83 188.272C180.468 187.821 180.301 187.245 180.365 186.67L181.468 176.773L127.339 170.738L126.208 180.871C126.14 181.445 125.848 181.97 125.396 182.33C124.944 182.691 124.368 182.859 123.793 182.798C123.507 182.768 123.23 182.681 122.978 182.543C122.726 182.404 122.504 182.218 122.324 181.993C122.145 181.768 122.012 181.51 121.933 181.234C121.855 180.957 121.832 180.668 121.866 180.382L123.241 168.078C123.311 167.507 123.602 166.985 124.052 166.625C124.501 166.265 125.074 166.095 125.647 166.151L184.119 172.674C184.696 172.738 185.224 173.028 185.587 173.481C185.95 173.934 186.119 174.513 186.055 175.09L184.707 187.15C184.646 187.722 184.36 188.246 183.912 188.607C183.464 188.969 182.891 189.138 182.319 189.077H182.292ZM176.863 169.86H176.61C176.325 169.829 176.049 169.741 175.798 169.603C175.547 169.464 175.326 169.277 175.148 169.052C174.969 168.828 174.837 168.57 174.759 168.294C174.681 168.018 174.658 167.73 174.692 167.445L186.091 65.2117C185.802 64.0356 179.758 60.3263 167.21 58.9239C154.662 57.5216 147.93 59.8287 147.379 60.9596L136.033 163.102C135.963 163.676 135.671 164.199 135.219 164.559C134.767 164.919 134.193 165.088 133.618 165.029C133.332 164.998 133.056 164.91 132.805 164.772C132.553 164.633 132.332 164.446 132.153 164.222C131.973 163.997 131.84 163.74 131.761 163.464C131.682 163.188 131.658 162.899 131.691 162.614L143.09 60.3805C143.407 57.5669 146.293 55.667 151.685 54.726C157.008 53.9339 162.413 53.87 167.753 54.5361C173.102 55.0551 178.355 56.2999 183.368 58.2364C188.417 60.3443 190.814 62.8323 190.497 65.655L179.098 167.888C179.044 168.432 178.788 168.936 178.381 169.301C177.975 169.666 177.446 169.865 176.9 169.86H176.863ZM169.345 169.019H169.101C168.525 168.953 168 168.662 167.638 168.209C167.277 167.757 167.11 167.179 167.174 166.603L168.205 157.339C168.237 157.055 168.325 156.779 168.464 156.529C168.602 156.278 168.789 156.057 169.013 155.879C169.236 155.7 169.493 155.567 169.768 155.488C170.044 155.409 170.332 155.385 170.616 155.417C170.901 155.449 171.176 155.537 171.427 155.675C171.677 155.814 171.898 156 172.077 156.224C172.255 156.448 172.388 156.705 172.467 156.98C172.547 157.255 172.571 157.543 172.539 157.828L171.553 167.083C171.493 167.616 171.238 168.109 170.837 168.466C170.436 168.823 169.918 169.02 169.381 169.019H169.345ZM160.253 166.305C159.676 166.241 159.148 165.951 158.785 165.498C158.421 165.045 158.253 164.466 158.317 163.889L159.348 154.634C159.418 154.061 159.711 153.538 160.162 153.177C160.614 152.817 161.189 152.648 161.764 152.707C162.049 152.737 162.325 152.824 162.577 152.961C162.829 153.099 163.051 153.285 163.231 153.508C163.411 153.732 163.545 153.989 163.625 154.264C163.706 154.54 163.731 154.828 163.7 155.114L162.659 164.378C162.585 164.937 162.296 165.446 161.854 165.797C161.412 166.148 160.851 166.314 160.289 166.26L160.253 166.305ZM141.959 166.024C141.385 165.961 140.859 165.672 140.498 165.22C140.136 164.769 139.969 164.193 140.032 163.618L141.064 154.345C141.138 153.773 141.432 153.253 141.883 152.893C142.333 152.534 142.905 152.363 143.479 152.418C144.055 152.483 144.58 152.775 144.942 153.227C145.303 153.68 145.47 154.257 145.406 154.833L144.375 164.097C144.298 164.658 144.007 165.166 143.564 165.517C143.12 165.868 142.558 166.034 141.996 165.979L141.959 166.024ZM151.206 165.301C150.629 165.237 150.1 164.947 149.737 164.494C149.374 164.041 149.206 163.462 149.269 162.885L150.301 153.621C150.376 153.048 150.67 152.526 151.123 152.166C151.576 151.807 152.15 151.637 152.725 151.694C153.01 151.724 153.286 151.811 153.537 151.948C153.788 152.086 154.009 152.272 154.187 152.496C154.366 152.72 154.498 152.977 154.576 153.253C154.655 153.528 154.677 153.816 154.643 154.1L153.612 163.374C153.537 163.933 153.249 164.442 152.807 164.793C152.365 165.144 151.804 165.31 151.242 165.255L151.206 165.301ZM173.181 152.056C172.869 152.055 172.56 151.987 172.276 151.857C167.485 149.937 162.442 148.718 157.303 148.238C152.396 147.615 147.427 147.655 142.529 148.355C142.238 148.425 141.936 148.434 141.641 148.382C141.346 148.33 141.065 148.219 140.815 148.054C140.566 147.889 140.352 147.675 140.188 147.424C140.024 147.174 139.914 146.892 139.863 146.598C139.812 146.303 139.822 146 139.893 145.709C139.963 145.419 140.093 145.145 140.273 144.906C140.454 144.668 140.681 144.468 140.941 144.321C141.202 144.173 141.49 144.081 141.787 144.049C147.091 143.277 152.475 143.225 157.792 143.895C163.385 144.417 168.871 145.755 174.077 147.867C174.536 148.072 174.91 148.428 175.138 148.876C175.365 149.324 175.431 149.837 175.325 150.328C175.219 150.82 174.947 151.259 174.555 151.574C174.163 151.888 173.675 152.059 173.172 152.056H173.181ZM171.806 145.487C171.231 145.421 170.705 145.13 170.344 144.678C169.982 144.225 169.815 143.647 169.879 143.072L170.91 133.807C170.983 133.235 171.276 132.713 171.727 132.354C172.178 131.994 172.752 131.824 173.326 131.88C173.901 131.944 174.428 132.233 174.791 132.684C175.153 133.135 175.323 133.711 175.262 134.287L174.213 143.551C174.184 143.841 174.097 144.123 173.956 144.378C173.816 144.634 173.626 144.859 173.398 145.04C173.169 145.22 172.906 145.353 172.625 145.43C172.343 145.507 172.05 145.526 171.761 145.487H171.806ZM163.193 142.773H162.958C162.381 142.71 161.853 142.419 161.49 141.966C161.127 141.513 160.958 140.935 161.022 140.358L162.062 131.102C162.126 130.526 162.415 129.999 162.868 129.637C163.32 129.275 163.897 129.107 164.473 129.171C165.049 129.234 165.576 129.524 165.938 129.976C166.301 130.428 166.468 131.006 166.405 131.582L165.364 140.846C165.295 141.382 165.031 141.873 164.622 142.225C164.213 142.577 163.688 142.766 163.148 142.755L163.193 142.773ZM144.664 142.475C144.087 142.411 143.559 142.121 143.196 141.668C142.833 141.215 142.665 140.636 142.728 140.059L143.769 130.795C143.841 130.222 144.134 129.701 144.585 129.341C145.036 128.981 145.61 128.811 146.184 128.868C146.76 128.934 147.286 129.225 147.647 129.678C148.008 130.13 148.175 130.708 148.111 131.283L147.026 140.484C147 140.773 146.917 141.053 146.781 141.309C146.645 141.565 146.46 141.792 146.236 141.975C146.012 142.159 145.754 142.296 145.476 142.379C145.199 142.461 144.907 142.488 144.619 142.457L144.664 142.475ZM153.902 141.742C153.616 141.71 153.34 141.623 153.088 141.484C152.837 141.346 152.615 141.159 152.436 140.934C152.257 140.71 152.124 140.452 152.045 140.176C151.966 139.9 151.942 139.611 151.975 139.326L153.015 130.071C153.085 129.499 153.377 128.978 153.826 128.618C154.276 128.258 154.848 128.088 155.422 128.144C155.707 128.174 155.983 128.261 156.235 128.398C156.487 128.536 156.709 128.722 156.889 128.945C157.069 129.169 157.203 129.426 157.283 129.701C157.364 129.977 157.389 130.265 157.358 130.55L156.317 139.815C156.285 140.103 156.195 140.383 156.053 140.636C155.911 140.889 155.72 141.111 155.49 141.289C155.261 141.467 154.998 141.597 154.717 141.672C154.437 141.747 154.144 141.764 153.856 141.724L153.902 141.742ZM175.615 130.216C175.303 130.217 174.995 130.152 174.71 130.026C169.921 128.111 164.881 126.892 159.746 126.407C154.838 125.782 149.868 125.825 144.972 126.534C144.682 126.602 144.381 126.61 144.087 126.558C143.793 126.505 143.513 126.393 143.265 126.229C143.016 126.065 142.803 125.851 142.64 125.602C142.476 125.352 142.366 125.072 142.314 124.778C142.263 124.484 142.272 124.183 142.342 123.893C142.411 123.603 142.539 123.33 142.718 123.091C142.896 122.853 143.122 122.653 143.38 122.504C143.639 122.355 143.925 122.261 144.221 122.227C149.524 121.451 154.908 121.397 160.226 122.064C165.82 122.584 171.307 123.926 176.511 126.045C176.973 126.246 177.352 126.601 177.582 127.05C177.812 127.498 177.879 128.013 177.773 128.506C177.666 128.999 177.392 129.439 176.997 129.753C176.602 130.066 176.11 130.233 175.606 130.225L175.615 130.216ZM174.511 123.403H174.276C173.699 123.34 173.171 123.049 172.808 122.596C172.445 122.143 172.276 121.565 172.34 120.988L173.38 111.723C173.477 111.175 173.78 110.685 174.226 110.351C174.672 110.018 175.228 109.867 175.781 109.93C176.334 109.992 176.843 110.263 177.203 110.686C177.564 111.11 177.75 111.656 177.723 112.212L176.637 121.485C176.569 122.012 176.311 122.496 175.911 122.846C175.511 123.195 174.997 123.387 174.466 123.385L174.511 123.403ZM165.663 120.689H165.419C165.133 120.658 164.857 120.57 164.605 120.431C164.354 120.293 164.132 120.106 163.953 119.882C163.774 119.657 163.641 119.4 163.562 119.124C163.483 118.848 163.459 118.559 163.492 118.273L164.523 109.009C164.591 108.435 164.883 107.91 165.335 107.55C165.787 107.189 166.363 107.021 166.939 107.082C167.513 107.146 168.039 107.435 168.4 107.886C168.762 108.338 168.929 108.914 168.866 109.489L167.753 118.699C167.692 119.225 167.441 119.712 167.049 120.068C166.656 120.424 166.148 120.625 165.618 120.635L165.663 120.689ZM147.379 120.409C147.07 120.411 146.765 120.347 146.484 120.223C146.202 120.098 145.95 119.915 145.744 119.686C145.538 119.457 145.382 119.187 145.288 118.894C145.194 118.6 145.164 118.29 145.198 117.984L146.239 108.72C146.271 108.435 146.359 108.16 146.497 107.909C146.636 107.658 146.822 107.438 147.046 107.259C147.27 107.08 147.527 106.948 147.802 106.869C148.077 106.789 148.365 106.765 148.65 106.797C148.934 106.829 149.21 106.917 149.46 107.056C149.711 107.194 149.932 107.381 150.11 107.604C150.289 107.828 150.422 108.085 150.501 108.36C150.58 108.636 150.604 108.924 150.572 109.208L149.541 118.472C149.47 119.003 149.205 119.489 148.797 119.836C148.39 120.183 147.869 120.368 147.333 120.354L147.379 120.409ZM156.616 119.685H156.371C156.086 119.653 155.81 119.566 155.558 119.427C155.307 119.289 155.085 119.102 154.906 118.877C154.727 118.653 154.594 118.395 154.515 118.119C154.436 117.843 154.412 117.554 154.444 117.269L155.431 107.914C155.503 107.341 155.796 106.819 156.247 106.458C156.697 106.096 157.271 105.924 157.846 105.978C158.422 106.044 158.947 106.335 159.309 106.788C159.67 107.241 159.837 107.818 159.773 108.394L158.706 117.685C158.657 118.222 158.412 118.721 158.018 119.088C157.624 119.455 157.109 119.665 156.571 119.676L156.616 119.685ZM178.058 108.394C177.745 108.401 177.436 108.336 177.153 108.204C172.362 106.284 167.319 105.066 162.18 104.585C157.273 103.954 152.302 103.993 147.406 104.703C146.851 104.766 146.292 104.616 145.845 104.281C145.397 103.947 145.095 103.454 144.999 102.904C144.903 102.353 145.021 101.787 145.329 101.321C145.637 100.855 146.111 100.524 146.655 100.396C151.961 99.6195 157.348 99.5677 162.668 100.242C168.264 100.754 173.753 102.095 178.953 104.223C179.41 104.427 179.783 104.783 180.009 105.229C180.235 105.676 180.3 106.187 180.194 106.676C180.088 107.165 179.817 107.603 179.426 107.916C179.035 108.228 178.549 108.397 178.049 108.394H178.058ZM176.981 101.4H176.728C176.153 101.337 175.627 101.047 175.266 100.596C174.904 100.145 174.737 99.5686 174.801 98.9939L175.832 89.7205C175.909 89.15 176.203 88.6312 176.653 88.2722C177.103 87.9132 177.674 87.7417 178.248 87.7935C178.533 87.825 178.809 87.9125 179.061 88.0511C179.312 88.1897 179.534 88.3765 179.713 88.601C179.892 88.8254 180.025 89.083 180.104 89.359C180.183 89.635 180.207 89.9239 180.175 90.2091L179.143 99.4734C179.066 100.001 178.8 100.482 178.393 100.827C177.987 101.171 177.469 101.356 176.936 101.346L176.981 101.4ZM168.124 98.6863H167.87C167.574 98.6546 167.287 98.5627 167.028 98.4163C166.768 98.2699 166.542 98.0721 166.361 97.8349C166.181 97.5978 166.051 97.3263 165.979 97.0371C165.907 96.7479 165.895 96.4471 165.943 96.1531L166.975 86.8888C167.047 86.3146 167.342 85.7916 167.795 85.4315C168.248 85.0714 168.824 84.9028 169.399 84.9617C169.974 85.0254 170.5 85.3147 170.861 85.766C171.223 86.2173 171.39 86.7936 171.326 87.3683L170.286 96.6416C170.232 97.1854 169.974 97.6886 169.565 98.0508C169.156 98.4131 168.625 98.6077 168.079 98.5958L168.124 98.6863ZM149.83 98.4058H149.586C149.011 98.3399 148.485 98.0487 148.124 97.596C147.763 97.1433 147.595 96.5659 147.659 95.9902L148.69 86.7259C148.763 86.1528 149.056 85.6304 149.506 85.2691C149.957 84.9078 150.531 84.7359 151.106 84.7898C151.654 84.8664 152.153 85.1479 152.503 85.5776C152.852 86.0074 153.025 86.5535 152.988 87.1059L151.956 96.3702C151.896 96.9045 151.642 97.398 151.242 97.7567C150.841 98.1154 150.323 98.3143 149.785 98.3154L149.83 98.4058ZM159.077 97.6821H158.832C158.537 97.6501 158.251 97.5585 157.991 97.4128C157.732 97.2671 157.505 97.0703 157.324 96.8343C157.143 96.5984 157.012 96.3281 156.938 96.04C156.865 95.7518 156.85 95.4517 156.896 95.1579L157.937 85.8936C158.007 85.3202 158.299 84.7972 158.751 84.4369C159.203 84.0767 159.778 83.9078 160.352 83.9665C160.637 83.9991 160.912 84.0875 161.163 84.2265C161.413 84.3656 161.634 84.5526 161.812 84.7769C161.99 85.0013 162.122 85.2585 162.201 85.5339C162.279 85.8093 162.303 86.0976 162.27 86.3821L161.239 95.6465C161.182 96.1886 160.924 96.6896 160.515 97.0499C160.106 97.4103 159.576 97.6036 159.031 97.5916L159.077 97.6821ZM179.605 86.3912C174.815 84.4673 169.771 83.2483 164.632 82.7723C159.727 82.1408 154.76 82.1803 149.867 82.8899C149.297 82.9907 148.71 82.861 148.236 82.5293C147.762 82.1976 147.439 81.6911 147.338 81.1212C147.237 80.5513 147.367 79.9648 147.699 79.4905C148.03 79.0163 148.537 78.6933 149.107 78.5925C154.381 77.7868 159.74 77.6985 165.039 78.3302C170.633 78.8481 176.121 80.1895 181.324 82.3109C181.853 82.5508 182.265 82.9911 182.469 83.5349C182.674 84.0787 182.654 84.6814 182.414 85.2105C182.174 85.7396 181.734 86.1517 181.19 86.3562C180.646 86.5606 180.043 86.5407 179.514 86.3007L179.605 86.3912ZM179.505 78.7011H179.261C178.976 78.6685 178.701 78.5802 178.45 78.4411C178.2 78.302 177.979 78.115 177.801 77.8907C177.623 77.6664 177.491 77.4091 177.412 77.1337C177.334 76.8583 177.31 76.57 177.343 76.2855L178.365 67.0212C178.43 66.4441 178.721 65.9164 179.175 65.5542C179.629 65.1919 180.208 65.0248 180.785 65.0896C181.362 65.1544 181.89 65.4458 182.252 65.8996C182.615 66.3535 182.782 66.9326 182.717 67.5097L181.676 76.774C181.593 77.2972 181.322 77.7721 180.914 78.1101C180.506 78.4481 179.989 78.626 179.46 78.6106L179.505 78.7011ZM170.657 75.9869H170.413C170.127 75.9554 169.851 75.8679 169.6 75.7293C169.348 75.5908 169.126 75.4039 168.947 75.1794C168.768 74.955 168.635 74.6974 168.556 74.4214C168.477 74.1455 168.453 73.8566 168.486 73.5713L169.517 64.307C169.581 63.7311 169.87 63.2041 170.323 62.8419C170.775 62.4796 171.352 62.3119 171.928 62.3754C172.504 62.439 173.031 62.7288 173.393 63.1809C173.755 63.6331 173.923 64.2106 173.86 64.7865L172.828 74.0508C172.739 74.5698 172.466 75.0394 172.059 75.3733C171.652 75.7073 171.138 75.8834 170.612 75.8693L170.657 75.9869ZM152.364 75.7065H152.119C151.544 75.6406 151.018 75.3494 150.657 74.8966C150.296 74.4439 150.129 73.8665 150.192 73.2909L151.224 64.0266C151.296 63.4534 151.589 62.931 152.04 62.5697C152.49 62.2084 153.064 62.0366 153.639 62.0905C154.215 62.1564 154.74 62.4475 155.102 62.9003C155.463 63.353 155.63 63.9304 155.566 64.5061L154.535 73.7704C154.448 74.2902 154.175 74.7608 153.768 75.0952C153.36 75.4295 152.845 75.6049 152.318 75.5888L152.364 75.7065ZM161.61 74.9736H161.366C160.79 74.9077 160.264 74.6166 159.903 74.1638C159.542 73.7111 159.375 73.1337 159.438 72.558L160.47 63.2937C160.484 62.9949 160.56 62.7022 160.692 62.4337C160.824 62.1652 161.01 61.9267 161.238 61.7328C161.466 61.5389 161.731 61.3937 162.017 61.3063C162.303 61.2189 162.604 61.191 162.901 61.2245C163.199 61.2579 163.486 61.352 163.746 61.5008C164.005 61.6496 164.232 61.85 164.411 62.0897C164.59 62.3294 164.718 62.6033 164.787 62.8944C164.856 63.1855 164.865 63.4877 164.813 63.7823L163.781 73.0466C163.69 73.5639 163.416 74.0313 163.009 74.3635C162.602 74.6957 162.09 74.8705 161.565 74.856L161.61 74.9736ZM183.269 55.9746C182.961 55.9752 182.657 55.9109 182.377 55.7858C182.096 55.6607 181.845 55.4777 181.64 55.2488C181.435 55.0198 181.28 54.7501 181.187 54.4573C181.094 54.1645 181.063 53.8553 181.097 53.5499L181.351 51.2519C181.399 50.8451 181.56 50.4599 181.816 50.14C182.071 49.8202 182.412 49.5785 182.798 49.4425C184.662 48.773 184.942 48.1578 184.942 48.1487C184.843 46.9545 179.342 43.5166 169.137 42.3857C158.932 41.2548 152.852 43.3809 152.445 44.548C152.445 44.548 152.608 45.2084 154.254 46.2669C154.599 46.4853 154.875 46.7963 155.051 47.1643C155.227 47.5323 155.296 47.9425 155.25 48.3478L154.987 50.6458C154.924 51.2216 154.634 51.7487 154.182 52.1109C153.73 52.4731 153.152 52.6409 152.576 52.5773C152 52.5138 151.473 52.224 151.111 51.7718C150.749 51.3197 150.581 50.7421 150.645 50.1663L150.762 49.1439C148.329 47.2259 147.949 45.3532 148.048 44.0504C148.265 42.1867 149.749 39.6806 155.648 38.414C164.895 36.8695 174.39 37.9283 183.07 41.4719C188.543 44.0051 189.403 46.7736 189.231 48.6463C189.086 49.9491 188.326 51.6862 185.503 53.0252L185.395 54.0475C185.309 54.5604 185.043 55.0259 184.645 55.3607C184.248 55.6956 183.744 55.8779 183.224 55.875L183.269 55.9746ZM177.994 54.0113C177.687 54.012 177.383 53.9477 177.102 53.8226C176.821 53.6975 176.57 53.5145 176.365 53.2855C176.16 53.0566 176.006 52.7869 175.912 52.4941C175.819 52.2013 175.788 51.8921 175.823 51.5867L176.031 49.6596C176.031 49.4244 175.805 49.1349 175.389 49.0897C174.972 49.0444 174.665 49.2163 174.629 49.5058L174.502 50.691C174.428 51.2597 174.134 51.7767 173.684 52.131C173.233 52.4853 172.661 52.6486 172.091 52.5858C171.521 52.523 170.998 52.2391 170.636 51.7951C170.273 51.3512 170.098 50.7826 170.15 50.2115L170.286 49.0173C170.359 48.3628 170.568 47.7308 170.9 47.162C171.232 46.5932 171.679 46.1003 172.213 45.7151C173.27 44.944 174.578 44.5984 175.877 44.747C176.532 44.8026 177.169 44.9876 177.752 45.2914C178.335 45.5951 178.852 46.0115 179.273 46.5164C179.694 47.0213 180.01 47.6047 180.204 48.2328C180.397 48.8609 180.464 49.5211 180.401 50.1753L180.193 52.1024C180.101 52.6245 179.823 53.0956 179.411 53.4284C178.998 53.7612 178.479 53.9329 177.949 53.9118L177.994 54.0113ZM158.796 51.8219C158.511 51.7873 158.235 51.6964 157.984 51.5547C157.734 51.413 157.514 51.2231 157.338 50.996C157.161 50.769 157.031 50.5092 156.955 50.2317C156.88 49.9542 156.86 49.6645 156.896 49.3792L157.104 47.4431C157.18 46.7906 157.39 46.161 157.722 45.5941C158.054 45.0272 158.5 44.5354 159.031 44.1499C160.073 43.3834 161.365 43.0377 162.65 43.1818C163.305 43.2374 163.942 43.4225 164.525 43.7262C165.108 44.0299 165.625 44.4463 166.046 44.9512C166.467 45.4561 166.783 46.0395 166.977 46.6676C167.17 47.2957 167.237 47.956 167.174 48.6102L167.047 49.8044C166.95 50.3525 166.648 50.843 166.202 51.1762C165.756 51.5094 165.2 51.6602 164.647 51.598C164.093 51.5358 163.585 51.2651 163.224 50.8412C162.863 50.4173 162.677 49.8718 162.705 49.3158L162.831 48.1307C162.831 47.8954 162.605 47.6059 162.189 47.5607C161.917 47.5607 161.465 47.6783 161.429 47.9678L161.212 49.8949C161.18 50.1802 161.093 50.4566 160.954 50.708C160.816 50.9595 160.629 51.1811 160.404 51.3602C160.18 51.5392 159.922 51.6722 159.646 51.7514C159.37 51.8307 159.081 51.8546 158.796 51.8219Z" fill="#1D1D1D"/>
<path d="M75.9692 107.77C74.9378 130.289 82.8632 150.292 95.873 166.333C83.0407 147.99 77.7263 125.427 81.0231 103.285C84.3198 81.1435 95.9771 61.1074 113.596 47.2988V40.061C92.3808 54.2923 77.2811 78.0592 75.9692 107.77Z" fill="#1D1D1D"/>
<path d="M237.706 131.03C237.739 122.21 235.693 113.506 231.735 105.623C227.778 97.7404 222.019 90.9009 214.925 85.6587V94.4164C220.424 99.705 224.798 106.049 227.786 113.069C230.775 120.089 232.315 127.64 232.315 135.269C232.315 142.898 230.775 150.449 227.786 157.469C224.798 164.489 220.424 170.833 214.925 176.122V176.393C222.017 171.151 227.775 164.313 231.732 156.432C235.69 148.551 237.736 139.849 237.706 131.03Z" fill="#1D1D1D"/>
<path d="M213.622 177.342C214.065 177.044 214.527 176.709 214.925 176.393V176.121C214.491 176.528 214.065 176.953 213.622 177.342Z" fill="#1D1D1D"/>
<path d="M40.1878 268.05C40.1502 268.011 40.1292 267.959 40.1292 267.905C40.1292 267.851 40.1502 267.799 40.1878 267.76C40.2405 267.7 40.3062 267.652 40.3798 267.621C40.4534 267.59 40.5331 267.575 40.613 267.579C41.7321 267.429 42.8684 267.675 43.8247 268.276C44.1031 268.489 44.3292 268.762 44.486 269.076C44.6427 269.39 44.726 269.735 44.7294 270.085C44.7475 270.447 44.6809 270.808 44.5348 271.139C44.3888 271.471 44.1673 271.764 43.888 271.994C43.5876 272.227 43.2516 272.411 42.8929 272.537C43.1219 273.068 43.4102 273.572 43.7523 274.039L44.0147 274.401L44.2861 274.763C44.5213 275.079 44.7023 275.324 44.8199 275.496C44.8486 275.53 44.8644 275.573 44.8644 275.618C44.8644 275.662 44.8486 275.706 44.8199 275.74C44.7521 275.812 44.6685 275.868 44.5756 275.903C44.4682 275.925 44.3574 275.925 44.2499 275.903C44.1962 275.898 44.1441 275.882 44.0973 275.856C44.0504 275.829 44.0099 275.793 43.9785 275.749L43.4357 275.007L43.1552 274.645L42.8929 274.274C42.5376 273.798 42.2343 273.286 41.9881 272.745C41.7278 272.793 41.465 272.826 41.201 272.845V275.631C41.1985 275.677 41.1826 275.721 41.1553 275.758C41.128 275.795 41.0904 275.823 41.0472 275.839C40.9426 275.889 40.8281 275.913 40.7125 275.912C40.5998 275.913 40.4882 275.888 40.3868 275.839C40.3436 275.823 40.306 275.795 40.2787 275.758C40.2514 275.721 40.2355 275.677 40.233 275.631L40.1878 268.05ZM41.1558 272.329C41.9076 272.317 42.6276 272.023 43.1733 271.506C43.371 271.313 43.5219 271.077 43.6145 270.817C43.707 270.556 43.7387 270.278 43.7071 270.004C43.6969 269.744 43.6338 269.489 43.5218 269.254C43.4099 269.019 43.2513 268.809 43.0557 268.638C42.493 268.272 41.8247 268.103 41.1558 268.158V272.329Z" fill="#1D1D1D"/>
<path d="M53.0798 267.932C53.0676 267.89 53.0689 267.844 53.0835 267.802C53.098 267.76 53.1252 267.723 53.1612 267.697C53.2685 267.611 53.4042 267.569 53.5412 267.58H57.0425C57.1649 267.574 57.2859 267.609 57.3863 267.679C57.422 267.699 57.4517 267.727 57.4724 267.763C57.4931 267.798 57.504 267.838 57.5039 267.878C57.4986 267.915 57.4842 267.95 57.4621 267.98C57.44 268.01 57.4109 268.034 57.3772 268.05C57.2763 268.119 57.1557 268.154 57.0334 268.15H54.0388V271.56H57.0425C57.1634 271.557 57.2829 271.588 57.3863 271.651C57.4203 271.672 57.4487 271.702 57.4691 271.736C57.4896 271.771 57.5015 271.81 57.5039 271.85C57.504 271.891 57.4931 271.931 57.4724 271.966C57.4517 272.001 57.422 272.029 57.3863 272.049C57.2853 272.118 57.1648 272.153 57.0425 272.149H54.0388V275.397H57.0425C57.1625 275.39 57.2819 275.418 57.3863 275.478C57.4221 275.5 57.4517 275.53 57.4723 275.567C57.4929 275.603 57.5037 275.644 57.5039 275.686C57.5024 275.725 57.4908 275.763 57.4702 275.797C57.4496 275.83 57.4206 275.857 57.3863 275.876C57.2853 275.945 57.1648 275.98 57.0425 275.976H53.5503C53.4252 275.98 53.302 275.945 53.1974 275.876C53.1631 275.857 53.1341 275.83 53.1135 275.797C53.0929 275.763 53.0813 275.725 53.0798 275.686V267.932Z" fill="#1D1D1D"/>
<path d="M66.1802 270.257C66.5882 270.814 67.1132 271.274 67.7182 271.605L68.1977 271.904L68.6591 272.212C68.9568 272.401 69.2329 272.622 69.4824 272.872C69.9269 273.276 70.1963 273.838 70.2333 274.437C70.2496 274.761 70.1476 275.081 69.9462 275.335C69.7449 275.59 69.4578 275.763 69.1386 275.821C68.4168 276.065 67.6348 276.065 66.913 275.821C66.3079 275.652 65.7802 275.278 65.4202 274.763C65.3915 274.734 65.3753 274.695 65.3753 274.654C65.3753 274.614 65.3915 274.575 65.4202 274.546C65.5013 274.483 65.5987 274.446 65.7007 274.437C65.8197 274.41 65.9435 274.41 66.0625 274.437C66.1707 274.46 66.267 274.521 66.334 274.609C66.5067 274.87 66.752 275.074 67.0396 275.197C67.3896 275.363 67.7747 275.44 68.1615 275.423C68.3335 275.424 68.5037 275.388 68.6601 275.316C68.8164 275.244 68.955 275.138 69.0662 275.007C69.2124 274.783 69.2704 274.512 69.2291 274.247C69.1689 273.957 69.0495 273.683 68.8782 273.442C68.7069 273.201 68.4875 272.997 68.2339 272.845C68.0529 272.709 67.7725 272.519 67.3834 272.275L66.9311 271.994C66.7682 271.886 66.6235 271.795 66.5059 271.705C65.8217 271.291 65.3034 270.651 65.0402 269.895C64.94 269.574 64.94 269.23 65.0402 268.909C65.1739 268.544 65.4382 268.241 65.7821 268.059C66.2136 267.827 66.6876 267.686 67.1753 267.643C67.6973 267.579 68.2266 267.622 68.7315 267.769C69.0729 267.846 69.3867 268.014 69.6388 268.257C69.8909 268.499 70.0715 268.806 70.1609 269.144C70.1707 269.188 70.1663 269.233 70.1484 269.274C70.1304 269.315 70.1 269.349 70.0614 269.371C69.9774 269.443 69.8731 269.487 69.7628 269.497C69.6524 269.52 69.5385 269.52 69.4281 269.497C69.3806 269.487 69.3368 269.464 69.3017 269.431C69.2665 269.397 69.2414 269.354 69.2291 269.307C69.2127 269.231 69.1916 269.155 69.1657 269.081L69.0572 268.846C68.9632 268.679 68.8256 268.542 68.6591 268.448C68.3982 268.321 68.1159 268.244 67.8267 268.222C67.5234 268.183 67.2153 268.207 66.922 268.294C66.694 268.346 66.4836 268.456 66.3121 268.615C66.1406 268.774 66.0139 268.975 65.9449 269.199C65.8851 269.569 65.9693 269.947 66.1802 270.257Z" fill="#1D1D1D"/>
<path d="M79.0906 268.176C78.9691 268.185 78.8482 268.153 78.7468 268.086C78.7117 268.066 78.6824 268.037 78.6618 268.002C78.6412 267.967 78.63 267.927 78.6292 267.887C78.629 267.846 78.6399 267.806 78.6606 267.771C78.6813 267.736 78.7111 267.707 78.7468 267.688C78.8485 267.62 78.9685 267.586 79.0906 267.588H83.7588C83.8843 267.581 84.0085 267.616 84.1117 267.688C84.1462 267.709 84.175 267.738 84.1955 267.773C84.2161 267.807 84.2276 267.847 84.2293 267.887C84.2262 267.927 84.214 267.966 84.1936 268C84.1732 268.035 84.1452 268.064 84.1117 268.086C84.0033 268.153 83.8769 268.184 83.7498 268.176H81.9404V275.713C81.9379 275.759 81.922 275.803 81.8947 275.84C81.8673 275.877 81.8298 275.905 81.7866 275.921C81.6823 275.971 81.5676 275.996 81.4518 275.993C81.3391 275.995 81.2276 275.97 81.1261 275.921C81.083 275.905 81.0454 275.877 81.0181 275.84C80.9907 275.803 80.9748 275.759 80.9723 275.713V268.176H79.0906Z" fill="#1D1D1D"/>
<path d="M91.4669 275.777C91.4451 275.822 91.4135 275.862 91.3744 275.893C91.3352 275.924 91.2895 275.947 91.2407 275.958C91.1303 275.981 91.0164 275.981 90.906 275.958C90.7952 275.949 90.6904 275.905 90.6074 275.831C90.5717 275.807 90.5457 275.771 90.534 275.73C90.5224 275.688 90.526 275.644 90.5441 275.605C90.814 274.876 91.0435 274.133 91.2317 273.379C91.3764 272.809 91.5483 272.031 91.7473 271.054L91.9826 269.887L92.2268 268.729V268.602V268.476C92.2268 268.358 92.2269 268.268 92.2811 268.195C92.3305 267.997 92.4453 267.822 92.6068 267.698C92.6917 267.627 92.7961 267.584 92.906 267.574C93.0159 267.565 93.1261 267.589 93.222 267.643C93.3906 267.714 93.5285 267.842 93.6111 268.005C93.8334 268.553 94.009 269.119 94.1358 269.697L94.3077 270.602L94.3982 271.036L94.4796 271.452C94.742 272.683 95.0134 274.112 95.312 275.741C95.3205 275.782 95.3154 275.824 95.2974 275.862C95.2794 275.899 95.2496 275.93 95.2124 275.949C95.111 275.998 94.9995 276.023 94.8867 276.021C94.561 276.021 94.3891 275.922 94.3529 275.741V275.677L94.1177 274.438H91.8831C91.7564 274.89 91.6297 275.352 91.4669 275.777ZM92.7878 270.692C92.5164 272.067 92.2902 273.108 92.0911 273.823H94.0544C93.8734 272.918 93.7016 272.067 93.5477 271.335C93.3939 270.602 93.213 269.815 93.0773 269.299L92.9325 270.005L92.7878 270.692Z" fill="#1D1D1D"/>
<path d="M107.182 275.848C106.571 276.059 105.904 276.037 105.309 275.785C104.837 275.583 104.444 275.234 104.187 274.79C103.87 274.233 103.67 273.617 103.599 272.98C103.522 272.38 103.486 271.776 103.491 271.171C103.491 270.791 103.491 270.266 103.545 269.533V268.719C103.545 268.412 103.545 268.14 103.545 267.896C103.546 267.85 103.562 267.805 103.589 267.768C103.617 267.73 103.655 267.703 103.699 267.688C103.8 267.639 103.912 267.614 104.024 267.615C104.14 267.613 104.255 267.638 104.359 267.688C104.402 267.706 104.44 267.736 104.467 267.775C104.494 267.813 104.51 267.858 104.513 267.905C104.513 268.149 104.513 268.439 104.513 268.755V269.615C104.513 270.348 104.459 270.927 104.513 271.334C104.513 271.992 104.57 272.649 104.685 273.297C104.733 273.568 104.803 273.834 104.893 274.093C104.976 274.367 105.111 274.622 105.291 274.844C105.408 275.007 105.555 275.146 105.725 275.251C105.938 275.379 106.184 275.439 106.431 275.423C106.67 275.413 106.9 275.331 107.091 275.188C107.243 275.068 107.374 274.924 107.48 274.763C107.812 274.21 108.025 273.593 108.105 272.953C108.105 272.682 108.168 272.374 108.186 272.049V271.144C108.186 270.764 108.186 270.239 108.123 269.506V268.692C108.123 268.384 108.123 268.122 108.123 267.878C108.123 267.833 108.137 267.789 108.163 267.752C108.189 267.714 108.225 267.686 108.268 267.67C108.369 267.621 108.48 267.596 108.593 267.597C108.712 267.595 108.829 267.62 108.937 267.67C108.979 267.689 109.014 267.72 109.039 267.758C109.065 267.796 109.08 267.841 109.082 267.887C109.082 268.231 109.082 268.674 109.082 269.217V269.877V270.538C109.12 271.427 109.072 272.318 108.937 273.198V273.36V273.532C108.937 273.668 108.883 273.795 108.856 273.903C108.793 274.166 108.702 274.42 108.584 274.663C108.446 274.948 108.25 275.2 108.009 275.405C107.767 275.609 107.485 275.76 107.182 275.848Z" fill="#1D1D1D"/>
<path d="M117.45 268.05C117.413 268.011 117.392 267.959 117.392 267.905C117.392 267.851 117.413 267.799 117.45 267.761C117.502 267.699 117.567 267.65 117.641 267.619C117.715 267.587 117.796 267.574 117.876 267.58C118.992 267.429 120.125 267.676 121.078 268.276C121.352 268.504 121.573 268.788 121.726 269.11C121.88 269.432 121.961 269.783 121.966 270.139C121.97 270.495 121.897 270.848 121.751 271.173C121.606 271.498 121.392 271.788 121.124 272.022C120.819 272.253 120.48 272.436 120.119 272.565C120.363 273.098 120.667 273.602 121.024 274.067L121.286 274.428L121.558 274.79C121.793 275.107 121.974 275.351 122.092 275.523C122.116 275.559 122.129 275.602 122.129 275.645C122.129 275.689 122.116 275.731 122.092 275.768C122.024 275.84 121.94 275.896 121.847 275.93C121.737 275.953 121.623 275.953 121.513 275.93C121.459 275.924 121.408 275.907 121.362 275.88C121.315 275.854 121.274 275.819 121.241 275.777C121.124 275.605 120.943 275.36 120.698 275.035L120.418 274.673L120.165 274.302C119.809 273.826 119.506 273.313 119.26 272.773C118.996 272.82 118.731 272.853 118.464 272.872V275.659C118.461 275.705 118.445 275.749 118.418 275.786C118.391 275.823 118.353 275.851 118.31 275.867C118.208 275.916 118.097 275.941 117.984 275.939C117.869 275.942 117.754 275.917 117.649 275.867C117.607 275.85 117.57 275.822 117.543 275.785C117.516 275.748 117.499 275.705 117.496 275.659L117.45 268.05ZM118.418 272.33C119.173 272.317 119.896 272.023 120.445 271.506C120.643 271.313 120.794 271.078 120.886 270.817C120.979 270.557 121.01 270.279 120.979 270.004C120.967 269.744 120.903 269.488 120.789 269.253C120.676 269.018 120.516 268.809 120.318 268.638C119.757 268.27 119.088 268.101 118.418 268.159V272.33Z" fill="#1D1D1D"/>
<path d="M131.094 275.777C131.072 275.822 131.04 275.861 131.001 275.893C130.962 275.924 130.917 275.946 130.868 275.958C130.757 275.98 130.643 275.98 130.533 275.958C130.422 275.949 130.317 275.905 130.234 275.831C130.199 275.807 130.173 275.771 130.161 275.729C130.149 275.688 130.153 275.644 130.171 275.605C130.415 274.953 130.641 274.202 130.859 273.379C131.003 272.809 131.175 272.031 131.374 271.054L131.61 269.887L131.854 268.729V268.602V268.475C131.854 268.358 131.854 268.267 131.908 268.195C131.959 268 132.07 267.826 132.225 267.697C132.312 267.627 132.417 267.585 132.529 267.575C132.64 267.565 132.751 267.589 132.849 267.643C133.018 267.714 133.156 267.842 133.238 268.005C133.46 268.553 133.636 269.119 133.763 269.697C133.763 269.914 133.862 270.203 133.935 270.602L134.025 271.036L134.107 271.452C134.369 272.682 134.64 274.112 134.939 275.74C134.949 275.782 134.943 275.826 134.923 275.864C134.903 275.903 134.87 275.932 134.83 275.948C134.733 275.999 134.624 276.024 134.514 276.021C134.188 276.021 134.016 275.921 133.98 275.74V275.677L133.745 274.438H131.564C131.411 274.89 131.257 275.351 131.094 275.777ZM132.415 270.692C132.143 272.067 131.917 273.108 131.718 273.822H133.681C133.5 272.918 133.329 272.067 133.175 271.334C133.021 270.601 132.84 269.814 132.704 269.299L132.56 270.004L132.415 270.692Z" fill="#1D1D1D"/>
<path d="M142.158 268.177C142.034 268.185 141.91 268.153 141.806 268.086C141.772 268.064 141.744 268.035 141.724 268C141.703 267.966 141.691 267.927 141.688 267.887C141.69 267.847 141.701 267.808 141.722 267.773C141.742 267.738 141.771 267.709 141.806 267.688C141.91 267.619 142.033 267.584 142.158 267.589H146.827C146.949 267.583 147.07 267.618 147.171 267.688C147.206 267.708 147.236 267.736 147.257 267.771C147.277 267.806 147.288 267.846 147.288 267.887C147.287 267.928 147.276 267.967 147.255 268.002C147.235 268.037 147.206 268.066 147.171 268.086C147.065 268.152 146.942 268.183 146.818 268.177H145.008V275.713C145.007 275.759 144.992 275.804 144.964 275.841C144.937 275.878 144.898 275.906 144.854 275.921C144.753 275.97 144.641 275.995 144.529 275.993C144.413 275.995 144.299 275.97 144.194 275.921C144.151 275.904 144.115 275.876 144.087 275.839C144.06 275.802 144.044 275.758 144.04 275.713V268.177H142.158Z" fill="#1D1D1D"/>
<path d="M156.543 275.713C156.543 275.758 156.529 275.802 156.503 275.839C156.477 275.876 156.441 275.905 156.399 275.921C156.297 275.97 156.186 275.995 156.073 275.994C155.957 275.996 155.843 275.971 155.738 275.921C155.696 275.904 155.659 275.876 155.632 275.839C155.604 275.802 155.588 275.759 155.584 275.713V267.86C155.587 267.813 155.603 267.768 155.631 267.73C155.658 267.691 155.695 267.661 155.738 267.643C155.845 267.601 155.958 267.579 156.073 267.58C156.186 267.578 156.297 267.603 156.399 267.652C156.441 267.668 156.477 267.697 156.503 267.734C156.529 267.771 156.543 267.815 156.543 267.86V275.713Z" fill="#1D1D1D"/>
<path d="M167.418 275.939C167.019 275.881 166.639 275.735 166.304 275.511C165.969 275.287 165.688 274.991 165.482 274.646C165.022 273.801 164.806 272.846 164.858 271.886C164.822 270.917 165.024 269.955 165.446 269.082C165.678 268.646 166.021 268.278 166.44 268.016C166.859 267.754 167.34 267.607 167.834 267.589H168.268C168.628 267.623 168.978 267.724 169.3 267.887C169.753 268.128 170.131 268.488 170.394 268.928C170.623 269.305 170.785 269.718 170.874 270.149C171.073 271.04 171.119 271.958 171.01 272.863C170.967 273.622 170.709 274.353 170.268 274.971C169.953 275.328 169.556 275.602 169.11 275.768C168.573 275.982 167.987 276.042 167.418 275.939ZM166.106 269.86C165.864 270.638 165.769 271.454 165.826 272.266C165.828 273.048 166.027 273.817 166.405 274.501C166.588 274.79 166.839 275.029 167.137 275.198C167.516 275.414 167.965 275.473 168.386 275.36C168.759 275.283 169.097 275.09 169.354 274.809C169.55 274.58 169.7 274.316 169.797 274.03C169.99 273.446 170.091 272.836 170.096 272.221C170.149 271.411 170.054 270.599 169.815 269.824C169.815 269.724 169.752 269.652 169.734 269.588L169.616 269.326C169.523 269.13 169.408 268.944 169.273 268.774C169.118 268.573 168.92 268.41 168.692 268.299C168.465 268.187 168.214 268.13 167.961 268.132C167.708 268.14 167.46 268.202 167.232 268.313C167.005 268.423 166.803 268.581 166.64 268.774C166.505 268.941 166.395 269.127 166.314 269.326C166.229 269.498 166.16 269.676 166.106 269.86Z" fill="#1D1D1D"/>
<path d="M179.514 267.986C179.378 267.851 179.442 267.733 179.713 267.643C179.823 267.599 179.941 267.584 180.058 267.598C180.175 267.612 180.287 267.656 180.383 267.724C180.943 268.223 181.385 268.842 181.676 269.534C181.821 269.841 181.975 270.212 182.156 270.646L182.382 271.198L182.608 271.75L182.853 272.347L183.088 272.935C183.287 273.388 183.468 273.777 183.64 274.102L183.766 274.347V267.806C183.769 267.76 183.785 267.715 183.812 267.678C183.839 267.641 183.877 267.613 183.92 267.597C184.024 267.547 184.139 267.522 184.255 267.525C184.368 267.524 184.479 267.548 184.581 267.597C184.623 267.614 184.66 267.643 184.687 267.679C184.714 267.716 184.731 267.76 184.734 267.806V275.686C184.734 275.839 184.608 275.93 184.345 275.957C184.266 275.977 184.184 275.981 184.103 275.969C184.022 275.956 183.944 275.928 183.875 275.885C183.615 275.71 183.396 275.482 183.232 275.215C183.155 275.093 183.086 274.966 183.024 274.835L182.925 274.654L182.825 274.473C182.644 274.139 182.463 273.759 182.264 273.324L182.029 272.745L181.785 272.166L181.55 271.569L181.305 270.981C181.115 270.511 180.953 270.122 180.799 269.796C180.645 269.47 180.564 269.316 180.473 269.154V275.658C180.474 275.704 180.46 275.748 180.434 275.786C180.408 275.823 180.371 275.851 180.328 275.867C180.224 275.917 180.109 275.942 179.994 275.939C179.877 275.943 179.761 275.915 179.659 275.857C179.616 275.842 179.579 275.814 179.553 275.777C179.527 275.739 179.513 275.695 179.514 275.649V267.986Z" fill="#1D1D1D"/>
<path d="M203.552 268.05C203.515 268.011 203.494 267.959 203.494 267.905C203.494 267.851 203.515 267.799 203.552 267.761C203.604 267.699 203.669 267.65 203.743 267.619C203.817 267.587 203.897 267.574 203.977 267.58C205.094 267.429 206.227 267.676 207.18 268.276C207.458 268.49 207.684 268.764 207.841 269.077C207.997 269.39 208.081 269.735 208.085 270.086C208.099 270.447 208.03 270.807 207.885 271.137C207.739 271.468 207.52 271.761 207.244 271.995C206.939 272.226 206.6 272.409 206.239 272.537C206.483 273.071 206.787 273.574 207.144 274.039L207.406 274.401L207.678 274.763L208.212 275.496C208.239 275.531 208.253 275.574 208.253 275.618C208.253 275.662 208.239 275.705 208.212 275.74C208.149 275.815 208.068 275.871 207.976 275.903C207.866 275.925 207.752 275.925 207.642 275.903C207.588 275.896 207.537 275.88 207.491 275.853C207.444 275.827 207.403 275.791 207.37 275.749C207.253 275.577 207.072 275.333 206.827 275.007L206.547 274.645L206.285 274.275C205.932 273.797 205.629 273.285 205.38 272.746C205.116 272.793 204.851 272.826 204.584 272.845V275.632C204.581 275.678 204.565 275.722 204.538 275.759C204.511 275.796 204.473 275.824 204.43 275.84C204.328 275.889 204.217 275.914 204.104 275.912C203.988 275.915 203.874 275.89 203.769 275.84C203.727 275.823 203.69 275.794 203.663 275.758C203.635 275.721 203.619 275.677 203.616 275.632L203.552 268.05ZM204.52 272.329C205.275 272.317 205.997 272.023 206.547 271.506C206.745 271.313 206.896 271.077 206.988 270.817C207.081 270.557 207.112 270.279 207.081 270.004C207.069 269.744 207.005 269.488 206.891 269.253C206.778 269.018 206.617 268.809 206.42 268.638C205.859 268.27 205.189 268.101 204.52 268.159V272.329Z" fill="#1D1D1D"/>
<path d="M217.196 275.777C217.174 275.822 217.142 275.862 217.103 275.893C217.064 275.924 217.018 275.947 216.969 275.958C216.859 275.981 216.745 275.981 216.635 275.958C216.525 275.945 216.421 275.901 216.336 275.831C216.3 275.807 216.274 275.771 216.263 275.73C216.251 275.688 216.255 275.644 216.273 275.605C216.543 274.876 216.772 274.133 216.96 273.379C217.105 272.809 217.277 272.031 217.476 271.054L217.711 269.887C217.802 269.453 217.883 269.064 217.965 268.729V268.602V268.476C217.965 268.358 217.965 268.268 218.019 268.195C218.068 267.997 218.183 267.822 218.345 267.698C218.43 267.627 218.534 267.584 218.644 267.574C218.754 267.565 218.864 267.589 218.96 267.643C219.128 267.714 219.266 267.842 219.349 268.005C219.571 268.553 219.747 269.119 219.874 269.697C219.919 269.914 219.973 270.204 220.046 270.602L220.136 271.036L220.217 271.452C220.483 272.659 220.763 274.088 221.059 275.741C221.068 275.783 221.063 275.827 221.043 275.865C221.023 275.903 220.99 275.933 220.95 275.949C220.849 275.999 220.737 276.024 220.625 276.021C220.308 276.021 220.127 275.922 220.091 275.741V275.677L219.865 274.438H217.621C217.503 274.891 217.361 275.338 217.196 275.777ZM218.526 270.692C218.254 272.067 218.019 273.108 217.829 273.823H219.783C219.602 272.918 219.43 272.067 219.276 271.335C219.123 270.602 218.942 269.815 218.806 269.299L218.661 270.005L218.526 270.692Z" fill="#1D1D1D"/>
<path d="M229.274 268.05C229.237 268.013 229.216 267.962 229.216 267.91C229.216 267.857 229.237 267.807 229.274 267.77C229.325 267.707 229.39 267.658 229.464 267.627C229.538 267.595 229.619 267.582 229.699 267.589C230.818 267.434 231.956 267.68 232.911 268.285C233.18 268.515 233.396 268.801 233.544 269.123C233.693 269.445 233.769 269.795 233.769 270.149C233.769 270.503 233.693 270.853 233.544 271.175C233.396 271.497 233.18 271.782 232.911 272.013C232.551 272.282 232.147 272.487 231.716 272.619C231.233 272.777 230.731 272.874 230.224 272.908V275.722C230.222 275.768 230.207 275.813 230.179 275.85C230.152 275.887 230.114 275.915 230.07 275.93C229.968 275.979 229.857 276.004 229.744 276.002C229.628 276.005 229.514 275.98 229.409 275.93C229.367 275.913 229.33 275.885 229.303 275.848C229.275 275.811 229.259 275.768 229.256 275.722L229.274 268.05ZM230.242 272.32C230.996 272.315 231.72 272.024 232.268 271.506C232.466 271.313 232.617 271.077 232.709 270.817C232.802 270.557 232.834 270.279 232.802 270.004C232.79 269.745 232.726 269.491 232.612 269.257C232.499 269.024 232.339 268.816 232.142 268.647C231.581 268.275 230.912 268.103 230.242 268.159V272.32Z" fill="#1D1D1D"/>
<path d="M243.017 275.713C243.014 275.758 242.999 275.801 242.973 275.837C242.948 275.874 242.913 275.903 242.872 275.921C242.768 275.971 242.653 275.996 242.537 275.994C242.424 275.995 242.313 275.97 242.211 275.921C242.169 275.904 242.132 275.876 242.105 275.839C242.078 275.802 242.061 275.759 242.058 275.713V267.86C242.061 267.813 242.077 267.768 242.104 267.73C242.131 267.691 242.168 267.661 242.211 267.643C242.315 267.602 242.426 267.581 242.537 267.58C242.653 267.577 242.768 267.602 242.872 267.652C242.913 267.67 242.948 267.699 242.973 267.736C242.999 267.773 243.014 267.816 243.017 267.86V275.713Z" fill="#1D1D1D"/>
<path d="M251.349 268.05C251.322 268.038 251.298 268.02 251.278 267.998C251.259 267.975 251.245 267.949 251.237 267.92C251.229 267.892 251.228 267.862 251.233 267.832C251.238 267.803 251.25 267.776 251.268 267.751C251.317 267.682 251.384 267.627 251.462 267.594C251.541 267.56 251.627 267.549 251.711 267.561C252.366 267.5 253.027 267.577 253.65 267.788C254.274 267.998 254.846 268.337 255.33 268.783C255.993 269.472 256.368 270.387 256.379 271.343C256.471 272.395 256.168 273.443 255.529 274.284C255.058 274.814 254.479 275.238 253.832 275.528C253.185 275.818 252.483 275.967 251.774 275.966C251.7 275.984 251.622 275.981 251.549 275.959C251.476 275.937 251.41 275.895 251.358 275.84C251.32 275.801 251.299 275.749 251.299 275.695C251.299 275.641 251.32 275.589 251.358 275.55L251.349 268.05ZM252.317 275.288C252.839 275.23 253.341 275.055 253.786 274.776C254.23 274.497 254.607 274.122 254.886 273.677C255.29 272.959 255.466 272.136 255.393 271.316C255.369 270.6 255.133 269.907 254.715 269.326C254.425 268.965 254.06 268.672 253.647 268.466C253.233 268.26 252.779 268.146 252.317 268.131V275.288Z" fill="#1D1D1D"/>
<path d="M264.702 267.932C264.691 267.89 264.691 267.846 264.704 267.804C264.717 267.762 264.741 267.725 264.775 267.697C264.886 267.611 265.024 267.57 265.164 267.58H268.665C268.788 267.574 268.909 267.609 269.009 267.679C269.045 267.699 269.074 267.727 269.095 267.762C269.116 267.797 269.127 267.837 269.127 267.878C269.125 267.917 269.114 267.955 269.093 267.989C269.072 268.022 269.043 268.049 269.009 268.068C268.907 268.136 268.787 268.17 268.665 268.168H265.661V271.578H268.665C268.786 271.575 268.906 271.606 269.009 271.669C269.043 271.69 269.071 271.72 269.092 271.754C269.112 271.789 269.124 271.828 269.127 271.868C269.127 271.909 269.116 271.949 269.095 271.984C269.074 272.019 269.045 272.047 269.009 272.067C268.907 272.135 268.787 272.169 268.665 272.166H265.661V275.414H268.665C268.785 275.408 268.905 275.436 269.009 275.496C269.045 275.518 269.074 275.548 269.095 275.585C269.116 275.621 269.127 275.662 269.127 275.704C269.125 275.743 269.114 275.781 269.093 275.815C269.072 275.848 269.043 275.875 269.009 275.894C268.907 275.962 268.787 275.996 268.665 275.993H265.173C265.048 275.999 264.924 275.964 264.82 275.894C264.786 275.875 264.757 275.848 264.736 275.815C264.716 275.781 264.704 275.743 264.702 275.704V267.932Z" fill="#1D1D1D"/>
</svg>
